#!OML:ASF H:\Male1\Project 1\Capture day 1\Session 1\Male1.ASF
:FULLY-SPECIFIED
:DEGREES
353
root 5.55479 15.5263 -0.538346 161.054 -86.9198 -160.831
lowerback 14.9058 1.54951 2.20306
upperback 5.49989 2.04909 -0.485328
thorax -2.43258 0.920646 -2.08584
lowerneck -6.98045 4.53379 10.1554
upperneck -0.310993 5.42156 -10.0583
head 1.6062 2.51181 -4.47598
rclavicle -1.59525e-014 1.54058e-015
rhumerus -30.9377 17.3936 -88.9958
rradius 39.8803
rwrist -20.3196
rhand -16.2436 0.450329
rfingers 7.12502
rthumb 9.96516 -29.2938
lclavicle -1.59525e-014 1.54058e-015
lhumerus -34.6918 8.37912 79.0188
lradius 34.365
lwrist 0.838003
lhand -16.9137 10.8069
lfingers 7.12502
lthumb 9.31864 40.581
rfemur -10.5453 11.2447 22.8247
rtibia 23.2461
rfoot -17.4838 -23.1503
rtoes -21.4521
lfemur -13.395 -9.66302 -17.0582
ltibia 29.4696
lfoot -15.6067 18.5304
ltoes -9.06232
354
root 5.53815 15.5268 -0.585938 150.36 -86.7273 -150.286
lowerback 14.636 1.56946 2.91536
upperback 5.43609 2.18248 -0.321399
thorax -2.3249 0.996181 -2.32985
lowerneck -7.43708 4.54556 9.75906
upperneck 0.529621 5.46387 -9.37794
head 1.89856 2.53751 -4.18412
rclavicle -1.40143e-014 2.73329e-015
rhumerus -31.144 17.0948 -89.1473
rradius 39.6753
rwrist -20.105
rhand -16.1787 0.302694
rfingers 7.12502
rthumb 10.0278 -29.4384
lclavicle -1.40143e-014 2.73329e-015
lhumerus -34.999 8.79513 78.954
lradius 35.3254
lwrist 1.57668
lhand -17.3688 10.5241
lfingers 7.12502
lthumb 8.87947 40.3173
rfemur -9.89759 11.6874 23.7592
rtibia 22.5863
rfoot -17.8285 -23.5268
rtoes -20.3758
lfemur -13.4488 -9.16449 -16.1772
ltibia 29.9039
lfoot -15.3768 17.9399
ltoes -9.18061
355
root 5.52359 15.5274 -0.625855 143.858 -86.8126 -143.899
lowerback 14.1789 1.56492 3.16157
upperback 5.50465 2.20395 -0.120782
thorax -2.00468 1.01545 -2.24552
lowerneck -7.83704 4.51511 9.34602
upperneck 1.12846 5.44439 -8.9091
head 2.11216 2.52917 -3.96199
rclavicle 3.72504e-014 -2.82274e-014
rhumerus -31.1224 17.1049 -89.0631
rradius 39.4654
rwrist -20.0534
rhand -16.3447 0.325375
rfingers 7.12502
rthumb 9.86763 -29.4234
lclavicle 3.72504e-014 -2.82274e-014
lhumerus -35.0632 9.38671 79.1542
lradius 36.2052
lwrist 1.9508
lhand -17.8504 10.3125
lfingers 7.12502
lthumb 8.41468 40.1248
rfemur -9.19262 11.8936 24.2414
rtibia 21.8409
rfoot -18.3213 -23.6906
rtoes -18.4074
lfemur -13.6315 -8.89972 -15.7185
ltibia 30.452
lfoot -15.0846 17.5549
ltoes -11.5066
356
root 5.51576 15.5261 -0.662634 141.061 -87.0417 -141.297
lowerback 14.0808 1.63979 2.76763
upperback 5.44757 2.26664 0.269368
thorax -2.04316 1.03943 -1.6242
lowerneck -7.888 4.40289 8.9353
upperneck 1.51843 5.34862 -8.83631
head 2.2146 2.47984 -3.87445
rclavicle -4.27387e-015 3.18055e-015
rhumerus -31.2915 17.3849 -88.6819
rradius 39.2311
rwrist -20.1206
rhand -16.584 0.33709
rfingers 7.12502
rthumb 9.63668 -29.4225
lclavicle -4.27387e-015 3.18055e-015
lhumerus -35.3125 10.1445 79.7052
lradius 37.0331
lwrist 1.93202
lhand -18.2476 9.99617
lfingers 7.12502
lthumb 8.03141 39.8236
rfemur -8.44424 12.1213 24.4075
rtibia 21.1208
rfoot -18.9404 -23.8023
rtoes -15.8333
lfemur -13.7502 -8.80546 -15.5869
ltibia 31.0099
lfoot -14.9894 16.9875
ltoes -12.4539
357
root 5.51276 15.524 -0.696082 137.231 -87.1534 -137.673
lowerback 14.5615 1.54408 3.42694
upperback 5.07944 2.2571 -0.0955852
thorax -2.64308 1.03484 -2.39877
lowerneck -7.89899 4.26161 9.27866
upperneck 2.12026 5.14096 -8.41239
head 2.37221 2.39438 -3.80694
rclavicle -4.48197e-015 1.55922e-015
rhumerus -31.7555 16.7055 -89.3835
rradius 38.9129
rwrist -19.951
rhand -16.6261 0.334513
rfingers 7.12502
rthumb 9.59612 -29.4269
lclavicle -4.48197e-015 1.55922e-015
lhumerus -35.7643 9.59705 79.3319
lradius 37.859
lwrist 2.31787
lhand -18.6804 9.74272
lfingers 7.12502
lthumb 7.61367 39.5857
rfemur -7.85536 12.3581 24.6566
rtibia 20.5695
rfoot -19.4076 -23.9641
rtoes -14.0102
lfemur -13.7797 -8.69478 -15.3555
ltibia 31.4702
lfoot -15.1447 16.2769
ltoes -14.4009
358
root 5.50842 15.5263 -0.722433 135.568 -87.3028 -136.176
lowerback 14.3858 1.53524 3.48158
upperback 5.10803 2.24828 -0.0670408
thorax -2.51821 1.03418 -2.39171
lowerneck -7.99041 4.15488 9.16037
upperneck 2.44491 5.01021 -8.23364
head 2.46397 2.33281 -3.73666
rclavicle -3.40232e-014 3.15571e-015
rhumerus -31.7213 16.5914 -89.3405
rradius 38.7164
rwrist -19.906
rhand -16.6134 0.370998
rfingers 7.12502
rthumb 9.60833 -29.3899
lclavicle -3.40232e-014 3.15571e-015
lhumerus -35.5757 9.54121 79.6653
lradius 38.3221
lwrist 2.44501
lhand -19.0934 9.63685
lfingers 7.12502
lthumb 7.21498 39.4938
rfemur -7.44079 12.305 24.7056
rtibia 20.209
rfoot -19.817 -23.8013
rtoes -12.5107
lfemur -13.7694 -8.54465 -15.292
ltibia 31.8447
lfoot -15.221 15.4855
ltoes -14.5524
359
root 5.50593 15.5298 -0.744031 136.521 -87.5844 -137.305
lowerback 14.2346 1.55209 3.3099
upperback 5.18094 2.24027 -0.0283909
thorax -2.37035 1.0321 -2.24675
lowerneck -8.16037 4.0709 8.90719
upperneck 2.75972 4.91738 -8.08238
head 2.56692 2.28568 -3.64991
rclavicle -8.56016e-015 -1.15792e-014
rhumerus -31.6542 16.4779 -89.1568
rradius 38.5906
rwrist -19.8056
rhand -16.6616 0.456462
rfingers 7.12502
rthumb 9.56187 -29.3066
lclavicle -8.56016e-015 -1.15792e-014
lhumerus -35.2242 9.55543 80.1174
lradius 38.5662
lwrist 2.31193
lhand -19.2375 9.32063
lfingers 7.12502
lthumb 7.07586 39.1824
rfemur -7.07567 11.9652 24.5336
rtibia 19.9607
rfoot -19.8877 -23.526
rtoes -12.2179
lfemur -13.7555 -8.42401 -15.4592
ltibia 32.1985
lfoot -15.3116 14.8774
ltoes -15.8021
360
root 5.50642 15.5328 -0.763295 138.323 -87.8878 -139.234
lowerback 14.1672 1.56686 3.21376
upperback 5.15016 2.24682 -0.0899195
thorax -2.36788 1.03649 -2.25638
lowerneck -8.18841 3.95561 8.76085
upperneck 3.08322 4.78238 -7.90247
head 2.64816 2.22324 -3.57649
rclavicle 7.87684e-015 1.93815e-015
rhumerus -31.7289 16.3291 -89.099
rradius 38.475
rwrist -19.867
rhand -16.7591 0.505769
rfingers 7.12502
rthumb 9.46779 -29.2616
lclavicle 7.87684e-015 1.93815e-015
lhumerus -35.0612 9.33007 80.4303
lradius 38.9129
lwrist 2.0597
lhand -19.01 9.11093
lfingers 7.12502
lthumb 7.29547 38.9652
rfemur -6.7822 11.7741 24.3357
rtibia 19.7362
rfoot -19.7746 -23.5732
rtoes -13.1087
lfemur -13.8066 -8.36599 -15.6709
ltibia 32.5902
lfoot -15.7178 14.2236
ltoes -16.1933
361
root 5.50563 15.537 -0.780961 137.689 -88.0227 -138.643
lowerback 13.8986 1.5602 3.27639
upperback 5.18812 2.23689 -0.133436
thorax -2.17985 1.03756 -2.32576
lowerneck -8.45467 3.90152 8.59989
upperneck 3.52531 4.70889 -7.59042
head 2.80524 2.19121 -3.45249
rclavicle -1.40392e-014 3.8266e-015
rhumerus -31.628 16.34 -89.1174
rradius 38.2818
rwrist -20.0452
rhand -16.9359 0.601163
rfingers 7.12502
rthumb 9.2972 -29.1738
lclavicle -1.40392e-014 3.8266e-015
lhumerus -34.8352 9.1727 80.6526
lradius 39.3373
lwrist 1.64392
lhand -18.3903 9.20398
lfingers 7.12502
lthumb 7.89368 39.0366
rfemur -6.53453 11.9189 24.3456
rtibia 19.468
rfoot -20.0407 -23.8547
rtoes -13.4128
lfemur -13.9312 -8.33445 -15.6634
ltibia 33.0751
lfoot -16.0718 13.7535
ltoes -18.5976
362
root 5.50492 15.5372 -0.795984 129.282 -87.9448 -130.242
lowerback 13.7019 1.49591 3.62671
upperback 5.13896 2.19877 -0.0705619
thorax -2.11544 1.02407 -2.44609
lowerneck -8.6034 3.82498 8.45863
upperneck 3.94113 4.61341 -7.33493
head 2.93634 2.14946 -3.35259
rclavicle 1.60767e-014 6.90777e-015
rhumerus -31.6635 16.3309 -89.1621
rradius 38.1291
rwrist -20.1047
rhand -17.1 0.707583
rfingers 7.12502
rthumb 9.13884 -29.0744
lclavicle 1.60767e-014 6.90777e-015
lhumerus -34.7514 9.17799 80.8155
lradius 39.7083
lwrist 1.10589
lhand -17.5904 8.9074
lfingers 7.12502
lthumb 8.66562 38.7095
rfemur -6.26818 12.109 24.7161
rtibia 19.1349
rfoot -20.2393 -24.3802
rtoes -15.0182
lfemur -14.0885 -8.39224 -15.2679
ltibia 33.6481
lfoot -16.7986 12.9816
ltoes -18.3849
363
root 5.50558 15.535 -0.807856 118.321 -87.7179 -119.296
lowerback 13.6286 1.42003 4.15141
upperback 5.00878 2.17764 0.043082
thorax -2.19575 1.01647 -2.61984
lowerneck -8.49015 3.68045 8.40448
upperneck 4.16559 4.4389 -7.24668
head 2.96807 2.06841 -3.32783
rclavicle -4.71617e-014 2.93207e-015
rhumerus -31.8297 16.2348 -89.1504
rradius 38.0314
rwrist -20.0665
rhand -17.0515 0.681685
rfingers 7.12502
rthumb 9.18565 -29.0983
lclavicle -4.71617e-014 2.93207e-015
lhumerus -34.8085 9.0202 81.0178
lradius 40.1138
lwrist 0.710952
lhand -16.9271 8.3232
lfingers 7.12502
lthumb 9.30572 38.0978
rfemur -5.99029 12.2212 25.2482
rtibia 18.7619
rfoot -19.9418 -25.0597
rtoes -18.51
lfemur -14.2808 -8.59764 -14.7149
ltibia 34.2377
lfoot -17.6743 12.3501
ltoes -17.7117
